# File created by Blade
# Date/Time:  Wed Jan 21 19:13:57 2015
# Frame Rate: 120.000 fps
#------------------------------------------------------
:FULLY-SPECIFIED
:DEGREES
833
root 6.276437 30.456878 8.862967 62.443057 61.798291 11.727899
RightUpLeg -80.601904 -11.896469 2.115358
RightLeg 17.333952 -0.000000 -0.000000
RightFoot 4.036939 -4.800520 20.955634
RightToeBase 17.654451 -0.000000 -0.000000
LeftUpLeg -43.842493 -2.284327 1.305631
LeftLeg 32.353624 -0.000000 -0.000000
LeftFoot -22.761405 2.846817 -9.143393
LeftToeBase -7.777870 -0.000000 0.000000
Spine -35.008186 -5.279834 10.263705
RightShoulder -16.185584 3.484666 -29.100313
RightArm -10.088958 -35.321295 87.861950
RightForeArm 28.184644 -0.000000 10.103694
RightHand 14.915443 -0.000000 5.554293
RightHandThumb1 -24.326973 -0.000000 -32.862282
LeftShoulder -5.278461 7.498150 23.767457
LeftArm 21.054210 40.247101 -85.273920
LeftForeArm 7.489977 -0.000000 22.812754
LeftHand -15.027743 -0.000000 -2.007524
LeftHandThumb1 -26.253704 0.000000 33.147579
Head -0.810034 6.796177 8.978332
834
root 6.165577 30.388752 8.658509 61.820614 61.922972 11.745180
RightUpLeg -80.148789 -12.101993 1.820291
RightLeg 17.017409 -0.000000 -0.000000
RightFoot 4.522391 -5.118992 21.109232
RightToeBase 17.581834 -0.000000 -0.000000
LeftUpLeg -43.975613 -2.365733 1.031302
LeftLeg 33.423449 -0.000000 -0.000000
LeftFoot -23.580415 3.128230 -9.022865
LeftToeBase -7.804573 -0.000000 0.000000
Spine -35.014733 -5.506404 10.167830
RightShoulder -16.239279 3.307153 -29.210348
RightArm -10.423102 -34.983982 87.602196
RightForeArm 28.701075 -0.000000 9.714597
RightHand 14.943646 -0.000000 5.605079
RightHandThumb1 -24.326973 -0.000000 -32.862282
LeftShoulder -5.291523 7.311266 23.760596
LeftArm 21.101484 39.855101 -85.405556
LeftForeArm 8.455926 -0.000000 23.201902
LeftHand -15.075605 -0.000000 -1.957904
LeftHandThumb1 -26.253704 0.000000 33.147579
Head -0.939695 6.564939 9.094032
835
root 6.049474 30.319605 8.448555 61.293930 62.040162 11.827029
RightUpLeg -79.734141 -12.309188 1.451295
RightLeg 16.690451 -0.000000 -0.000000
RightFoot 5.005562 -5.506430 21.260441
RightToeBase 17.579076 -0.000000 -0.000000
LeftUpLeg -44.103533 -2.559642 0.783386
LeftLeg 34.381085 -0.000000 -0.000000
LeftFoot -24.452294 3.404618 -9.059381
LeftToeBase -7.761593 -0.000000 0.000000
Spine -35.050230 -5.750178 10.038329
RightShoulder -16.303016 3.114342 -29.282810
RightArm -10.691035 -34.579456 87.292350
RightForeArm 29.033599 -0.000000 9.322871
RightHand 14.950017 -0.000000 5.697462
RightHandThumb1 -24.326973 -0.000000 -32.862282
LeftShoulder -5.300138 7.258020 23.729454
LeftArm 21.338884 39.442742 -85.420767
LeftForeArm 9.317764 -0.000000 23.674043
LeftHand -15.205176 -0.000000 -1.750289
LeftHandThumb1 -26.253704 0.000000 33.147579
Head -1.060501 6.327301 9.221596
836
root 5.930955 30.244267 8.243848 60.603340 62.202856 11.771074
RightUpLeg -79.240255 -12.435346 1.020271
RightLeg 16.359525 -0.000000 -0.000000
RightFoot 5.447632 -5.988083 21.505071
RightToeBase 17.648929 -0.000000 -0.000000
LeftUpLeg -44.223788 -2.328757 0.390008
LeftLeg 35.390561 -0.000000 -0.000000
LeftFoot -25.292474 3.441795 -8.861688
LeftToeBase -7.871612 -0.000000 0.000000
Spine -35.037590 -5.989667 9.960323
RightShoulder -16.338722 2.906835 -29.325593
RightArm -10.978243 -34.092193 86.967026
RightForeArm 29.271625 -0.000000 9.035474
RightHand 14.983668 -0.000000 5.953953
RightHandThumb1 -24.326973 -0.000000 -32.862282
LeftShoulder -5.321793 7.103324 23.697315
LeftArm 21.441531 38.987717 -85.485963
LeftForeArm 10.469309 -0.000000 24.208461
LeftHand -15.202629 -0.000000 -1.731411
LeftHandThumb1 -26.253704 0.000000 33.147579
Head -1.147055 6.082822 9.412606
